<svg xmlns="http://www.w3.org/2000/svg" width="1280" height="720" viewBox="0 0 1280 720" role="img" aria-labelledby="title desc">
  <title id="title">Winamp 5.9.2 inspired Home Assistant theme preview</title>
  <desc id="desc">A Home Assistant dashboard preview restyled to resemble the Winamp 5.9.2 screenshot with navy header bars, blue grey panels, black displays, green text, and yellow controls.</desc>
  <defs>
    <linearGradient id="shell" x1="0" x2="0" y1="0" y2="1">
      <stop offset="0%" stop-color="#4f5776"/>
      <stop offset="100%" stop-color="#323851"/>
    </linearGradient>
    <linearGradient id="panel" x1="0" x2="0" y1="0" y2="1">
      <stop offset="0%" stop-color="#434b67"/>
      <stop offset="100%" stop-color="#353b56"/>
    </linearGradient>
    <linearGradient id="titlebar" x1="0" x2="0" y1="0" y2="1">
      <stop offset="0%" stop-color="#1f2336"/>
      <stop offset="100%" stop-color="#141827"/>
    </linearGradient>
  </defs>
  <rect width="1280" height="720" fill="#1b1f2f"/>

  <rect x="92" y="72" width="1096" height="172" fill="url(#shell)" stroke="#111421" stroke-width="4"/>
  <rect x="92" y="72" width="1096" height="24" fill="url(#titlebar)" stroke="#0c0f19" stroke-width="2"/>
  <rect x="112" y="82" width="120" height="4" fill="#cabf6c"/>
  <rect x="248" y="82" width="784" height="4" fill="#cabf6c"/>
  <text x="540" y="89" fill="#f2ecb1" font-family="Tahoma, Verdana, sans-serif" font-size="18" font-weight="700">WINAMP DASHBOARD</text>

  <rect x="124" y="110" width="410" height="98" fill="#090c14" stroke="#838ca4" stroke-width="2"/>
  <text x="150" y="171" fill="#00ff62" font-family="'Lucida Console', 'Courier New', monospace" font-size="56">01:53</text>
  <rect x="148" y="121" width="16" height="48" fill="#00ff62"/>
  <rect x="170" y="133" width="16" height="36" fill="#00ff62"/>
  <rect x="192" y="145" width="16" height="24" fill="#00ff62"/>
  <rect x="214" y="129" width="16" height="40" fill="#00ff62"/>
  <rect x="236" y="117" width="16" height="52" fill="#00ff62"/>
  <rect x="258" y="138" width="16" height="31" fill="#00ff62"/>
  <rect x="280" y="150" width="16" height="19" fill="#00ff62"/>

  <text x="560" y="126" fill="#00ff62" font-family="Tahoma, Verdana, sans-serif" font-size="28" font-weight="700">4. Crusher-P - Echo (3:50)</text>
  <rect x="560" y="145" width="296" height="44" fill="#090c14" stroke="#7b84a2" stroke-width="2"/>
  <text x="576" y="174" fill="#00ff62" font-family="'Lucida Console', 'Courier New', monospace" font-size="24">128 kbps  48 kHz  stereo</text>

  <rect x="560" y="194" width="418" height="10" fill="#4a536f"/>
  <rect x="560" y="194" width="212" height="10" fill="#d7cb68"/>
  <rect x="762" y="188" width="22" height="22" fill="#d0d4df" stroke="#545c73" stroke-width="2"/>
  <rect x="996" y="188" width="128" height="22" fill="#d1d5de" stroke="#545c73" stroke-width="2"/>
  <text x="1035" y="204" fill="#2f3550" font-family="Tahoma, Verdana, sans-serif" font-size="14" font-weight="700">PLAY</text>

  <rect x="124" y="216" width="502" height="16" fill="#3b425d"/>
  <rect x="560" y="216" width="162" height="16" fill="#d1d5de" stroke="#545c73" stroke-width="1"/>
  <text x="599" y="228" fill="#293049" font-family="Tahoma, Verdana, sans-serif" font-size="13" font-weight="700">SHUFFLE</text>
  <rect x="736" y="216" width="170" height="16" fill="#d1d5de" stroke="#545c73" stroke-width="1"/>
  <text x="781" y="228" fill="#293049" font-family="Tahoma, Verdana, sans-serif" font-size="13" font-weight="700">REPEAT</text>

  <rect x="92" y="268" width="1096" height="182" fill="url(#shell)" stroke="#111421" stroke-width="4"/>
  <rect x="92" y="268" width="1096" height="24" fill="url(#titlebar)" stroke="#0c0f19" stroke-width="2"/>
  <rect x="112" y="278" width="120" height="4" fill="#cabf6c"/>
  <rect x="248" y="278" width="784" height="4" fill="#cabf6c"/>
  <text x="535" y="285" fill="#f2ecb1" font-family="Tahoma, Verdana, sans-serif" font-size="18" font-weight="700">WINAMP EQUALIZER</text>
  <rect x="124" y="308" width="128" height="32" fill="#d1d5de" stroke="#4f566e" stroke-width="2"/>
  <text x="158" y="329" fill="#2f3550" font-family="Tahoma, Verdana, sans-serif" font-size="18" font-weight="700">ON</text>
  <rect x="264" y="308" width="156" height="32" fill="#d1d5de" stroke="#4f566e" stroke-width="2"/>
  <text x="308" y="329" fill="#2f3550" font-family="Tahoma, Verdana, sans-serif" font-size="18" font-weight="700">AUTO</text>
  <rect x="944" y="308" width="184" height="32" fill="#d1d5de" stroke="#4f566e" stroke-width="2"/>
  <text x="987" y="329" fill="#2f3550" font-family="Tahoma, Verdana, sans-serif" font-size="18" font-weight="700">PRESETS</text>
  <text x="160" y="386" fill="#d7cb68" font-family="'Lucida Console', 'Courier New', monospace" font-size="24">+12db</text>
  <text x="160" y="424" fill="#d7cb68" font-family="'Lucida Console', 'Courier New', monospace" font-size="24">0db</text>
  <text x="160" y="462" fill="#d7cb68" font-family="'Lucida Console', 'Courier New', monospace" font-size="24">-12db</text>
  <g stroke="#d7cb68" stroke-width="6">
    <line x1="354" y1="348" x2="354" y2="430"/>
    <line x1="418" y1="332" x2="418" y2="430"/>
    <line x1="482" y1="364" x2="482" y2="430"/>
    <line x1="546" y1="348" x2="546" y2="430"/>
    <line x1="610" y1="320" x2="610" y2="430"/>
    <line x1="674" y1="356" x2="674" y2="430"/>
    <line x1="738" y1="340" x2="738" y2="430"/>
    <line x1="802" y1="352" x2="802" y2="430"/>
    <line x1="866" y1="326" x2="866" y2="430"/>
    <line x1="930" y1="312" x2="930" y2="430"/>
    <line x1="994" y1="336" x2="994" y2="430"/>
  </g>
  <g fill="#d1d5de" stroke="#50576e" stroke-width="2">
    <rect x="342" y="372" width="24" height="24"/>
    <rect x="406" y="356" width="24" height="24"/>
    <rect x="470" y="388" width="24" height="24"/>
    <rect x="534" y="372" width="24" height="24"/>
    <rect x="598" y="344" width="24" height="24"/>
    <rect x="662" y="380" width="24" height="24"/>
    <rect x="726" y="364" width="24" height="24"/>
    <rect x="790" y="376" width="24" height="24"/>
    <rect x="854" y="350" width="24" height="24"/>
    <rect x="918" y="336" width="24" height="24"/>
    <rect x="982" y="360" width="24" height="24"/>
  </g>

  <rect x="92" y="474" width="1096" height="194" fill="url(#shell)" stroke="#111421" stroke-width="4"/>
  <rect x="92" y="474" width="1096" height="24" fill="url(#titlebar)" stroke="#0c0f19" stroke-width="2"/>
  <rect x="112" y="484" width="120" height="4" fill="#cabf6c"/>
  <rect x="248" y="484" width="784" height="4" fill="#cabf6c"/>
  <text x="545" y="491" fill="#f2ecb1" font-family="Tahoma, Verdana, sans-serif" font-size="18" font-weight="700">WINAMP PLAYLIST</text>
  <rect x="124" y="512" width="1032" height="116" fill="#05070c" stroke="#8088a4" stroke-width="2"/>
  <text x="146" y="548" fill="#00ff62" font-family="Tahoma, Verdana, sans-serif" font-size="34" font-weight="700">1. Mori Calliope - Go-Getters</text>
  <text x="1040" y="548" fill="#00ff62" font-family="Tahoma, Verdana, sans-serif" font-size="34" font-weight="700">3:15</text>
  <text x="146" y="582" fill="#00ff62" font-family="Tahoma, Verdana, sans-serif" font-size="34" font-weight="700">2. CircusP - Goodbye</text>
  <text x="1052" y="582" fill="#00ff62" font-family="Tahoma, Verdana, sans-serif" font-size="34" font-weight="700">3:24</text>
  <text x="146" y="616" fill="#00ff62" font-family="Tahoma, Verdana, sans-serif" font-size="34" font-weight="700">3. Crusher-P - Echo</text>
  <text x="1060" y="616" fill="#00ff62" font-family="Tahoma, Verdana, sans-serif" font-size="34" font-weight="700">3:50</text>
  <rect x="124" y="634" width="220" height="22" fill="#d1d5de" stroke="#4f566e" stroke-width="2"/>
  <rect x="360" y="634" width="220" height="22" fill="#d1d5de" stroke="#4f566e" stroke-width="2"/>
  <rect x="596" y="634" width="220" height="22" fill="#d1d5de" stroke="#4f566e" stroke-width="2"/>
  <rect x="832" y="634" width="220" height="22" fill="#090c14" stroke="#8088a4" stroke-width="2"/>
  <text x="902" y="651" fill="#00ff62" font-family="'Lucida Console', 'Courier New', monospace" font-size="18">0:00/27:45</text>
</svg>
